<?xml version="1.0" standalone="no"?>
<!DOCTYPE svg PUBLIC "-//W3C//DTD SVG 20010904//EN"
 "http://www.w3.org/TR/2001/REC-SVG-20010904/DTD/svg10.dtd">
<svg version="1.0" xmlns="http://www.w3.org/2000/svg"
 width="222.000000pt" height="216.000000pt" viewBox="0 0 222.000000 216.000000"
 preserveAspectRatio="xMidYMid meet">

<g transform="translate(0.000000,216.000000) scale(0.100000,-0.100000)"
fill="#000000" stroke="none">
<path d="M1310 1435 l-205 -206 71 -69 c40 -39 76 -70 81 -70 10 0 83 144 83
165 0 8 5 15 10 15 6 0 10 9 10 20 0 11 5 20 12 20 6 0 9 3 5 6 -3 4 16 51 44
105 27 55 47 99 43 99 -3 0 2 7 10 16 9 8 14 20 11 25 -4 5 -1 9 4 9 6 0 11 9
11 19 0 11 5 21 12 23 6 2 9 9 7 16 -2 7 -96 -80 -209 -193z"/>
<path d="M1058 1174 c-4 -7 -76 -224 -93 -280 -2 -7 9 -10 28 -8 43 3 219 68
211 77 -4 4 -3 7 3 7 6 0 13 11 15 24 4 20 -10 39 -77 106 -46 45 -85 78 -87
74z"/>
<path d="M592 932 l-183 -177 103 -146 c150 -212 147 -208 148 -182 0 12 5 23
10 25 6 2 -33 67 -85 145 -52 79 -95 147 -95 152 0 5 72 79 161 164 157 152
182 187 139 194 -8 2 -97 -77 -198 -175z"/>
</g>
</svg>
